<svg width="36" height="35" viewBox="0 0 36 35" fill="none" xmlns="http://www.w3.org/2000/svg">
    <path d="M17.4938 0C27.1562 0 34.9873 7.83216 34.9873 17.4938C34.9873 27.1566 27.1562 34.9877 17.4938 34.9877C7.83216 34.9877 0 27.1566 0 17.4938C0 7.83216 7.83216 0 17.4938 0Z" fill="white" />
    <path d="M17.4042 32.9281C26.0743 32.9281 33.1027 25.8996 33.1027 17.2296C33.1027 8.55953 26.0743 1.53107 17.4042 1.53107C8.73416 1.53107 1.70569 8.55953 1.70569 17.2296C1.70569 25.8996 8.73416 32.9281 17.4042 32.9281Z" fill="url(#paint0_linear_508_1450)" />
    <path d="M17.825 29.8551C16.0254 27.6516 15.0775 26.5025 14.9832 26.4089C14.6272 25.9823 14.0231 25.3904 13.171 24.6326C13.5497 22.5947 14.0472 21.0081 14.6635 19.8705C14.9 19.4677 15.8832 18.1411 17.6126 15.8907C18.5605 17.8567 19.84 19.1833 21.4502 19.8705C21.8048 20.0127 23.333 20.3328 26.0327 20.8307C28.0235 21.2321 29.623 21.9791 30.83 23.0691C32.5357 24.6078 34.0157 27.1667 35.271 30.7433C30.1784 27.8769 26.5421 26.8707 24.3637 27.7232C23.3446 28.3395 22.468 28.8248 21.7343 29.1801C20.6212 29.7482 19.318 29.9736 17.825 29.8551Z" fill="white" />
    <path d="M18.3939 12.0892C18.1804 13.4395 17.7192 14.5415 17.0082 15.3936C16.605 15.8911 15.8235 16.5784 14.6628 17.4546C12.3408 19.1596 10.6596 21.3628 9.61741 24.0631C8.59897 26.6217 8.33833 29.2158 8.83621 31.8456L8.09029 31.9155C7.52113 29.2637 7.75873 26.6454 8.80057 24.0635C9.86653 21.3156 11.6669 19.017 14.2013 17.1706C15.5992 16.128 16.5114 14.7424 16.9377 13.0137C17.2692 11.5927 17.2332 10.0404 16.8307 8.35849C16.5233 6.91345 16.0132 5.83561 15.3036 5.12533C14.616 4.43845 13.9291 4.19005 13.2419 4.37941C11.6313 4.80565 11.0149 6.84325 11.3947 10.4908C11.7501 13.9493 12.4135 16.1287 13.3841 17.0284C12.4132 17.1 11.5726 15.7734 10.8616 13.0489C10.1743 10.3486 10.0793 8.00317 10.5768 6.01381C10.7903 5.01913 11.2522 4.27285 11.9625 3.77533C13.0522 3.01717 14.3197 3.11221 15.7651 4.05937C16.7123 4.67569 17.4111 5.63473 17.8603 6.93757C18.4057 8.35849 18.5843 10.0761 18.3939 12.0892ZM11.5009 32.098C10.1509 26.0259 11.0628 21.6429 14.2373 18.9461C12.0816 23.6333 11.5132 28.0411 12.5316 32.1707L11.5009 32.098Z" fill="white" />
    <defs>
        <linearGradient id="paint0_linear_508_1450" x1="14.6778" y1="1.76719" x2="20.1307" y2="32.6924" gradientUnits="userSpaceOnUse">
            <stop stop-color="#B5460F" />
            <stop offset="1" stop-color="#B5460F" />
        </linearGradient>
    </defs>
</svg>